<?xml version="1.0" standalone="no"?>
<!DOCTYPE svg PUBLIC "-//W3C//DTD SVG 20010904//EN"
 "http://www.w3.org/TR/2001/REC-SVG-20010904/DTD/svg10.dtd">
<svg version="1.0" xmlns="http://www.w3.org/2000/svg"
 width="300.000000pt" height="217.000000pt" viewBox="0 0 300.000000 217.000000"
 preserveAspectRatio="xMidYMid meet">
<metadata>
Created by potrace 1.10, written by Peter Selinger 2001-2011
</metadata>
<g transform="translate(0.000000,217.000000) scale(0.100000,-0.100000)"
fill="#000000" stroke="none">
<path d="M1269 1920 c-89 -47 -131 -118 -137 -232 l-4 -78 -94 0 c-146 0 -134
38 -134 -433 0 -369 1 -395 18 -410 17 -15 69 -17 539 -17 504 0 520 1 538 20
16 18 17 43 10 406 l-7 387 -24 24 c-21 21 -32 23 -124 23 l-100 0 0 64 c0
113 -43 193 -129 239 -46 26 -56 27 -182 27 -112 -1 -140 -4 -170 -20z m121
-25 c-7 -8 -21 -15 -31 -15 -50 0 -98 -96 -99 -197 l0 -73 -35 0 -35 0 0 73
c0 98 31 150 116 194 66 35 105 43 84 18z m195 -23 c76 -47 104 -95 112 -192
l6 -70 -37 0 c-20 0 -36 -5 -36 -11 0 -7 12 -10 30 -7 33 5 40 -5 40 -59 0
-47 10 -37 12 11 1 41 17 61 19 24 1 -13 1 -26 0 -30 0 -4 9 -33 20 -64 22
-58 19 -73 -17 -78 -30 -5 -47 21 -41 60 5 30 4 34 -8 24 -30 -25 -25 -79 9
-102 36 -25 96 11 96 57 0 14 -9 34 -20 45 -15 15 -20 33 -20 71 0 45 2 50 18
43 9 -4 54 -9 99 -12 45 -2 87 -9 92 -16 12 -15 25 -757 13 -774 -6 -9 -41
-12 -137 -10 l-128 3 44 30 c75 50 74 47 77 224 3 156 2 160 -20 175 -30 21
-50 20 -80 -4 l-25 -19 -23 45 c-28 53 -74 104 -95 104 -19 0 -59 -39 -50 -48
4 -4 11 1 16 11 6 9 20 17 32 17 19 0 34 -20 82 -109 l60 -108 5 51 c5 48 7
51 36 54 47 5 52 -10 42 -133 -5 -60 -6 -130 -3 -155 l5 -46 -75 -43 -76 -43
-43 35 c-48 40 -169 239 -164 272 2 13 12 21 28 23 14 2 29 10 33 18 4 8 16
14 26 14 11 0 21 7 25 15 3 8 12 15 21 15 8 0 15 2 15 4 0 12 -53 96 -61 96
-6 0 -9 -3 -7 -7 2 -5 10 -20 17 -35 19 -37 11 -51 -52 -86 -58 -33 -71 -52
-61 -86 14 -44 110 -203 147 -243 l38 -42 -298 -3 c-164 -2 -301 -2 -305 0 -5
2 -8 179 -8 394 0 347 2 393 16 409 13 14 21 16 35 8 20 -10 69 -2 69 12 0 5
14 9 30 9 17 0 30 -5 30 -11 0 -8 12 -10 35 -6 l35 6 0 -51 c0 -60 7 -59 19 3
l9 44 1 -42 c2 -62 21 -65 21 -3 0 46 2 51 18 44 9 -4 59 -9 110 -12 73 -3 98
-1 117 12 13 9 33 16 45 16 18 0 20 6 20 76 0 85 -15 128 -62 175 -17 16 -40
29 -54 29 -14 0 -22 4 -19 10 11 18 38 10 100 -28z m-117 -6 c66 -34 102 -104
102 -196 l0 -60 -130 0 -130 0 0 60 c0 91 30 151 95 191 36 23 30 22 63 5z
m-478 -685 c0 -265 -3 -392 -11 -396 -5 -4 -19 1 -30 11 -18 16 -19 34 -19
384 0 381 1 390 42 390 17 0 18 -21 18 -389z"/>
<path d="M1230 1471 c-26 -49 3 -101 56 -101 48 0 75 74 39 108 -16 16 -17 15
-11 -18 9 -54 -23 -82 -63 -54 -20 14 -20 17 -6 44 18 34 18 40 5 40 -5 0 -14
-9 -20 -19z"/>
<path d="M160 632 c0 -6 5 -12 11 -14 18 -6 16 -188 -2 -199 -9 -5 8 -8 46 -8
33 0 54 3 48 6 -8 3 -13 23 -13 49 0 38 4 46 25 54 29 11 43 55 26 82 -15 23
1 23 22 0 24 -26 21 -47 -10 -77 -15 -14 -23 -25 -17 -25 5 0 28 -23 49 -51
22 -29 53 -60 70 -70 26 -16 27 -19 9 -19 -29 0 -68 32 -115 97 -23 30 -43 52
-46 49 -5 -5 48 -88 80 -123 l20 -23 -26 0 c-19 0 -27 5 -27 18 0 15 -9 17
-77 15 -43 -1 -79 -7 -81 -12 -5 -16 12 -19 123 -25 55 -3 122 -8 148 -12 30
-4 56 -3 70 5 16 9 317 11 1195 9 1165 -3 1209 -2 1161 27 -6 4 -537 7 -1181
7 -894 0 -1173 -3 -1178 -12 -8 -13 -42 -6 -72 14 -9 7 -35 35 -57 62 -38 48
-39 51 -20 62 27 17 26 73 -2 98 -16 14 -40 20 -100 23 -50 2 -79 -1 -79 -7z
m70 -107 c0 -93 -2 -105 -17 -105 -16 0 -18 10 -15 92 3 101 6 118 22 118 6 0
10 -40 10 -105z m64 63 c13 -21 -2 -51 -28 -56 -13 -3 -16 5 -16 38 0 33 3 41
16 38 9 -2 22 -11 28 -20z"/>
<path d="M454 630 c-40 -16 -64 -59 -64 -112 0 -43 4 -54 30 -78 35 -33 78
-42 140 -30 59 11 90 47 90 103 -1 51 -17 82 -56 108 -31 20 -102 25 -140 9z
m7 -29 c-29 -29 -36 -85 -17 -133 l16 -42 -30 29 c-40 38 -41 90 -4 134 14 17
32 31 40 31 10 0 9 -5 -5 -19z m103 -13 c23 -33 21 -113 -4 -138 -52 -52 -123
9 -105 89 14 64 78 93 109 49z m66 -69 c0 -31 -7 -47 -29 -70 -34 -33 -62 -40
-32 -7 24 25 36 76 26 110 -18 62 -17 64 9 35 19 -20 26 -39 26 -68z"/>
<path d="M660 630 c0 -5 5 -10 10 -10 15 0 13 -197 -2 -203 -7 -3 28 -6 78 -6
l92 -1 5 33 c2 17 3 33 2 35 -2 2 -14 -8 -28 -22 -15 -14 -35 -26 -47 -26 -19
0 -20 6 -20 89 0 50 5 93 10 96 24 15 6 25 -45 25 -30 0 -55 -4 -55 -10z m70
-110 c0 -89 -2 -100 -17 -100 -16 0 -18 10 -15 100 3 79 6 100 18 100 11 0 14
-20 14 -100z"/>
<path d="M850 631 c0 -5 4 -11 10 -13 5 -1 12 -45 14 -95 4 -79 2 -94 -12
-103 -12 -7 10 -9 74 -10 l92 0 6 32 c8 42 3 44 -27 14 -15 -14 -35 -26 -47
-26 -19 0 -20 6 -20 89 0 50 5 93 10 96 24 15 6 25 -45 25 -30 0 -55 -4 -55
-9z m70 -111 c0 -89 -2 -100 -17 -100 -16 0 -18 10 -15 100 3 79 6 100 18 100
11 0 14 -20 14 -100z"/>
<path d="M1040 631 c0 -5 7 -11 15 -15 12 -4 15 -25 15 -95 0 -75 -3 -92 -17
-100 -14 -8 -3 -10 42 -10 33 0 54 3 48 6 -16 6 -18 189 -3 198 24 15 6 25
-45 25 -30 0 -55 -4 -55 -9z m70 -111 c0 -89 -2 -100 -17 -100 -16 0 -18 10
-15 100 3 79 6 100 18 100 11 0 14 -20 14 -100z"/>
<path d="M1180 531 c0 -78 -4 -111 -12 -114 -7 -3 12 -6 42 -6 42 -1 51 2 42
11 -7 7 -12 36 -12 66 l0 55 78 -74 77 -74 3 105 c1 58 7 109 12 114 20 20 9
26 -45 26 -53 0 -72 -11 -40 -24 11 -4 15 -21 15 -63 l0 -57 -73 72 c-40 39
-76 72 -80 72 -4 0 -7 -49 -7 -109z m200 3 c0 -85 -2 -95 -15 -84 -11 9 -15
33 -15 90 0 72 3 81 28 89 1 1 2 -42 2 -95z m-110 9 c0 -4 -8 1 -18 10 -10 10
-21 17 -25 17 -3 0 -5 -34 -4 -75 2 -61 -1 -75 -13 -75 -12 0 -15 17 -15 94
l0 94 38 -30 c20 -16 37 -32 37 -35z"/>
<path d="M1493 630 c-30 -12 -63 -67 -63 -105 0 -73 51 -117 135 -116 70 0
105 20 105 59 0 16 5 33 12 40 13 13 15 13 -47 14 -25 1 -48 -2 -52 -6 -3 -3
-1 -6 6 -6 8 0 11 -13 9 -37 -3 -34 -6 -38 -35 -41 -40 -4 -63 27 -63 84 0 53
30 94 70 94 28 0 60 -22 60 -41 0 -5 6 -9 13 -9 25 0 8 60 -20 71 -30 11 -101
11 -130 -1z m14 -28 c-36 -37 -38 -115 -5 -157 20 -25 20 -27 2 -17 -26 14
-50 42 -59 70 -10 35 13 91 49 113 42 26 45 24 13 -9z m143 -121 c0 -20 -8
-35 -22 -45 -31 -22 -45 -20 -25 2 10 10 17 31 17 45 0 17 5 27 15 27 10 0 15
-10 15 -29z"/>
<path d="M1790 620 c-37 -37 -23 -73 46 -121 34 -23 44 -36 41 -50 -3 -10 -1
-19 4 -19 5 0 9 12 9 28 -1 21 -12 35 -50 62 -53 37 -63 65 -34 94 23 23 27
19 8 -8 -15 -25 -15 -25 35 -62 63 -45 74 -62 57 -95 -9 -18 -19 -23 -42 -21
-45 4 -53 9 -64 37 -12 33 -30 24 -30 -15 0 -33 19 -43 81 -42 104 2 116 84
20 142 -47 28 -50 53 -8 58 19 2 27 -1 27 -12 0 -9 7 -16 15 -16 16 0 19 17 9
44 -10 25 -98 22 -124 -4z"/>
<path d="M1941 603 c0 -37 0 -38 16 -15 8 12 24 22 34 22 17 0 19 -9 19 -94 0
-66 -4 -96 -12 -99 -7 -3 14 -6 47 -6 33 0 55 3 49 7 -7 4 -13 45 -15 100 -4
90 -4 92 19 92 12 0 25 -7 28 -15 10 -25 24 -17 24 15 l0 30 -105 0 -105 0 1
-37z m118 -83 c1 -89 -1 -100 -17 -100 -15 0 -17 10 -15 92 2 97 7 123 22 114
5 -4 10 -51 10 -106z"/>
<path d="M2213 625 c-65 -28 -84 -121 -35 -176 33 -37 84 -49 152 -37 141 25
101 229 -45 228 -22 -1 -54 -7 -72 -15z m9 -28 c-27 -29 -30 -110 -6 -145 8
-12 11 -22 6 -22 -13 0 -49 42 -57 68 -9 30 12 88 38 107 32 23 43 18 19 -8z
m102 -2 c33 -33 32 -109 -3 -149 -13 -16 -13 -18 -1 -14 35 11 52 96 29 155
l-10 28 28 -27 c39 -39 38 -96 -1 -137 -26 -27 -34 -30 -70 -25 -53 8 -76 35
-76 89 0 74 62 122 104 80z"/>
<path d="M2420 632 c0 -5 7 -12 15 -16 12 -4 15 -25 15 -95 0 -75 -3 -92 -17
-100 -14 -8 -4 -10 41 -11 50 0 57 2 47 14 -7 8 -11 32 -9 53 l3 38 23 -42
c12 -23 31 -47 42 -53 12 -6 68 -9 137 -8 l117 3 7 33 c5 24 3 32 -7 32 -8 0
-14 -7 -14 -15 0 -17 -30 -35 -59 -35 -18 0 -21 6 -21 40 0 34 3 40 20 40 11
0 23 -7 26 -15 11 -28 24 -15 24 25 0 40 -13 53 -24 25 -3 -8 -15 -15 -26 -15
-17 0 -20 6 -20 40 0 38 2 40 31 40 22 0 32 -5 36 -20 9 -32 23 -23 23 15 l0
35 -85 0 c-83 0 -96 -5 -75 -26 7 -7 10 -47 8 -100 -3 -103 -13 -111 -61 -52
-29 36 -29 39 -14 56 24 26 21 75 -4 98 -16 14 -40 20 -100 23 -48 2 -79 -1
-79 -7z m72 -140 c3 -63 1 -72 -14 -72 -16 0 -18 11 -18 99 0 71 4 101 13 104
13 4 15 -8 19 -131z m230 30 c3 -92 2 -102 -14 -102 -16 0 -18 11 -18 99 0 70
4 101 13 104 6 2 13 4 14 3 1 -1 4 -48 5 -104z m-140 81 c24 -22 23 -48 -3
-72 l-22 -20 37 -46 c41 -49 27 -64 -16 -17 -42 45 -48 62 -27 83 22 22 25 59
7 77 -18 18 3 14 24 -5z m-32 -13 c13 -24 -3 -60 -25 -60 -11 0 -15 12 -15 40
0 44 21 55 40 20z"/>
</g>
</svg>
