<svg xmlns="http://www.w3.org/2000/svg" xmlns:xlink="http://www.w3.org/1999/xlink" width="500" zoomAndPan="magnify" viewBox="0 0 375 374.999991" height="500" preserveAspectRatio="xMidYMid meet" version="1.0"><defs><g/><clipPath id="fa8ae519e9"><path d="M 177.878906 153 L 187 153 L 187 155 L 177.878906 155 Z M 177.878906 153 " clip-rule="nonzero"/></clipPath><clipPath id="3ba810d341"><path d="M 224 148 L 255.128906 148 L 255.128906 250.199219 L 224 250.199219 Z M 224 148 " clip-rule="nonzero"/></clipPath></defs><g clip-path="url(#fa8ae519e9)"><path fill="#ffffff" d="M 186.652344 153.769531 L 177.878906 154.578125 L 186.652344 154.515625 Z M 186.652344 153.769531 " fill-opacity="1" fill-rule="nonzero"/></g><path fill="#ffffff" d="M 191.140625 153.398438 L 191.140625 154.527344 L 219.710938 154.347656 L 219.691406 150.769531 Z M 191.140625 153.398438 " fill-opacity="1" fill-rule="nonzero"/><path fill="#ffffff" d="M 223.015625 159.824219 C 223.003906 155.539062 222.953125 141.125 223.015625 139.539062 C 223.058594 138.503906 222.449219 133.835938 218.773438 130 C 215.601562 126.6875 211.15625 125.011719 205.554688 125.011719 C 188.761719 125.011719 187.957031 140.480469 187.957031 140.667969 L 187.957031 159.8125 C 187.453125 160.144531 187.113281 160.722656 187.113281 161.375 C 187.113281 162.410156 187.949219 163.25 188.976562 163.25 C 190.007812 163.25 190.839844 162.410156 190.839844 161.375 C 190.839844 160.621094 190.398438 159.980469 189.75 159.679688 L 189.75 140.699219 C 189.769531 140.128906 190.46875 126.800781 205.5625 126.800781 C 210.660156 126.800781 214.675781 128.289062 217.496094 131.238281 C 220.472656 134.34375 221.277344 138.359375 221.234375 139.46875 C 221.171875 141.082031 221.214844 155.199219 221.222656 159.679688 C 220.585938 159.980469 220.132812 160.621094 220.132812 161.375 C 220.132812 162.410156 220.96875 163.25 221.996094 163.25 C 223.027344 163.25 223.859375 162.410156 223.859375 161.375 C 223.859375 160.722656 223.519531 160.15625 223.015625 159.824219 Z M 223.015625 159.824219 " fill-opacity="1" fill-rule="nonzero"/><g clip-path="url(#3ba810d341)"><path fill="#ffffff" d="M 247.242188 150.808594 L 246.039062 148.386719 L 245.542969 148.429688 L 235.382812 149.359375 L 224.488281 150.363281 L 224.519531 154.320312 L 238.542969 154.234375 C 262.871094 195.34375 235.855469 248.980469 235.269531 250.140625 C 263.746094 209.75 255.632812 164.625 247.242188 150.808594 Z M 247.242188 150.808594 " fill-opacity="1" fill-rule="nonzero"/></g><g fill="#ffffff" fill-opacity="1"><g transform="translate(125.038889, 189.985476)"><g><path d="M 2.609375 -6.046875 L 2.609375 -11.035156 L 5.453125 -11.035156 C 6.191406 -11.035156 6.785156 -10.800781 7.234375 -10.332031 C 7.667969 -9.863281 7.902344 -9.289062 7.902344 -8.566406 C 7.902344 -7.847656 7.667969 -7.253906 7.199219 -6.769531 C 6.730469 -6.28125 6.15625 -6.046875 5.453125 -6.046875 Z M 9.160156 -8.550781 C 9.160156 -9.59375 8.765625 -10.492188 8.011719 -11.195312 C 7.273438 -11.878906 6.355469 -12.238281 5.273438 -12.238281 L 1.351562 -12.238281 L 1.351562 0 L 2.609375 0 L 2.609375 -4.84375 L 4.066406 -4.84375 L 7.667969 0 L 9.359375 0 L 5.578125 -4.84375 C 6.535156 -4.894531 7.34375 -5.238281 8.011719 -5.867188 C 8.765625 -6.570312 9.160156 -7.46875 9.160156 -8.550781 Z M 9.160156 -8.550781 "/></g></g></g><g fill="#ffffff" fill-opacity="1"><g transform="translate(134.830866, 189.985476)"><g><path d="M 7.828125 -3.996094 C 7.828125 -3.203125 7.542969 -2.539062 6.984375 -1.980469 C 6.40625 -1.402344 5.742188 -1.132812 4.949219 -1.132812 C 4.15625 -1.132812 3.472656 -1.402344 2.914062 -1.980469 C 2.339844 -2.539062 2.070312 -3.203125 2.070312 -3.996094 C 2.070312 -4.789062 2.339844 -5.453125 2.914062 -6.03125 C 3.472656 -6.589844 4.15625 -6.875 4.949219 -6.875 C 5.742188 -6.875 6.40625 -6.589844 6.984375 -6.03125 C 7.542969 -5.453125 7.828125 -4.789062 7.828125 -3.996094 Z M 9.089844 -3.996094 C 9.089844 -5.128906 8.675781 -6.101562 7.867188 -6.910156 C 7.054688 -7.722656 6.085938 -8.136719 4.949219 -8.136719 C 3.796875 -8.136719 2.824219 -7.722656 2.015625 -6.910156 C 1.207031 -6.101562 0.808594 -5.128906 0.808594 -3.996094 C 0.808594 -2.84375 1.207031 -1.871094 2.015625 -1.078125 C 2.824219 -0.269531 3.816406 0.125 4.949219 0.125 C 6.066406 0.125 7.054688 -0.269531 7.867188 -1.078125 C 8.675781 -1.871094 9.089844 -2.84375 9.089844 -3.996094 Z M 9.089844 -3.996094 "/></g></g></g><g fill="#ffffff" fill-opacity="1"><g transform="translate(144.73084, 189.985476)"><g><path d="M 2.609375 0 L 2.609375 -13.5 L 1.351562 -13.5 L 1.351562 0 Z M 2.609375 0 "/></g></g></g><g fill="#ffffff" fill-opacity="1"><g transform="translate(148.690827, 189.985476)"><g><path d="M 2.609375 0 L 2.609375 -13.5 L 1.351562 -13.5 L 1.351562 0 Z M 2.609375 0 "/></g></g></g><g fill="#ffffff" fill-opacity="1"><g transform="translate(152.650815, 189.985476)"><g><path d="M 2.628906 -10.65625 C 2.464844 -10.800781 2.269531 -10.890625 2.050781 -10.890625 C 1.835938 -10.890625 1.636719 -10.800781 1.492188 -10.65625 C 1.332031 -10.492188 1.261719 -10.296875 1.261719 -10.078125 C 1.261719 -9.863281 1.332031 -9.664062 1.492188 -9.523438 C 1.636719 -9.359375 1.835938 -9.289062 2.050781 -9.289062 C 2.269531 -9.289062 2.464844 -9.359375 2.628906 -9.523438 C 2.773438 -9.664062 2.863281 -9.863281 2.863281 -10.078125 C 2.863281 -10.296875 2.773438 -10.492188 2.628906 -10.65625 Z M 2.699219 0 L 2.699219 -7.921875 L 1.441406 -7.921875 L 1.441406 0 Z M 2.699219 0 "/></g></g></g><g fill="#ffffff" fill-opacity="1"><g transform="translate(156.772804, 189.985476)"><g><path d="M 6.820312 0 L 8.082031 0 L 8.082031 -4.949219 C 8.082031 -5.867188 7.828125 -6.605469 7.363281 -7.164062 C 7.109375 -7.453125 6.820312 -7.667969 6.480469 -7.828125 C 6.121094 -7.992188 5.671875 -8.082031 5.113281 -8.082031 C 4.535156 -8.082031 4.050781 -7.921875 3.617188 -7.632812 C 3.203125 -7.363281 2.863281 -7.003906 2.609375 -6.550781 L 2.609375 -7.921875 L 1.351562 -7.921875 L 1.351562 0 L 2.609375 0 L 2.609375 -3.3125 C 2.609375 -4.320312 2.789062 -5.113281 3.167969 -5.707031 C 3.382812 -6.03125 3.652344 -6.300781 3.996094 -6.515625 C 4.320312 -6.714844 4.769531 -6.820312 5.308594 -6.820312 C 5.851562 -6.820312 6.226562 -6.625 6.460938 -6.265625 C 6.695312 -5.902344 6.820312 -5.453125 6.820312 -4.949219 Z M 6.820312 0 "/></g></g></g><g fill="#ffffff" fill-opacity="1"><g transform="translate(165.934772, 189.985476)"><g><path d="M 7.757812 -3.960938 C 7.757812 -3.1875 7.488281 -2.503906 6.949219 -1.945312 C 6.40625 -1.367188 5.742188 -1.078125 4.96875 -1.078125 C 4.195312 -1.078125 3.527344 -1.367188 2.988281 -1.945312 C 2.449219 -2.503906 2.179688 -3.167969 2.179688 -3.960938 C 2.179688 -4.734375 2.449219 -5.398438 2.988281 -5.976562 C 3.527344 -6.550781 4.195312 -6.839844 4.96875 -6.839844 C 5.742188 -6.839844 6.40625 -6.550781 6.949219 -5.976562 C 7.488281 -5.398438 7.757812 -4.714844 7.757812 -3.960938 Z M 2.140625 1.078125 L 0.847656 1.078125 C 0.988281 1.925781 1.367188 2.664062 2.015625 3.292969 C 2.808594 4.105469 3.78125 4.5 4.914062 4.5 C 6.03125 4.5 7.003906 4.105469 7.8125 3.292969 C 8.605469 2.503906 9.019531 1.53125 9.019531 0.394531 L 9.019531 -7.921875 L 7.757812 -7.921875 L 7.757812 -6.589844 C 7.6875 -6.660156 7.613281 -6.75 7.542969 -6.839844 C 6.75 -7.667969 5.832031 -8.101562 4.789062 -8.101562 C 3.671875 -8.101562 2.753906 -7.667969 1.996094 -6.839844 C 1.277344 -6.011719 0.917969 -5.058594 0.917969 -3.960938 C 0.917969 -2.84375 1.277344 -1.890625 1.996094 -1.078125 C 2.753906 -0.234375 3.671875 0.179688 4.789062 0.179688 C 5.867188 0.179688 6.785156 -0.234375 7.542969 -1.078125 C 7.613281 -1.152344 7.6875 -1.242188 7.757812 -1.3125 L 7.757812 0.394531 C 7.757812 1.1875 7.46875 1.855469 6.910156 2.410156 C 6.355469 2.96875 5.6875 3.238281 4.914062 3.238281 C 4.121094 3.238281 3.457031 2.96875 2.898438 2.410156 C 2.503906 2.015625 2.25 1.585938 2.140625 1.078125 Z M 2.140625 1.078125 "/></g></g></g><g fill="#ffffff" fill-opacity="1"><g transform="translate(176.302741, 189.985476)"><g/></g></g><g fill="#ffffff" fill-opacity="1"><g transform="translate(181.162726, 189.985476)"><g><path d="M 12.636719 0 L 13.914062 0 L 11.070312 -13.050781 L 7.054688 -2.574219 L 3.042969 -13.050781 L 0.179688 0 L 1.476562 0 L 3.367188 -8.710938 L 7.054688 0.71875 L 10.726562 -8.710938 Z M 12.636719 0 "/></g></g></g><g fill="#ffffff" fill-opacity="1"><g transform="translate(195.256685, 189.985476)"><g><path d="M 7.648438 -3.960938 C 7.648438 -3.1875 7.378906 -2.503906 6.839844 -1.945312 C 6.300781 -1.367188 5.632812 -1.078125 4.859375 -1.078125 C 4.066406 -1.078125 3.402344 -1.367188 2.863281 -1.945312 C 2.320312 -2.503906 2.070312 -3.1875 2.070312 -3.960938 C 2.070312 -4.714844 2.320312 -5.398438 2.863281 -5.976562 C 3.402344 -6.550781 4.066406 -6.839844 4.859375 -6.839844 C 5.632812 -6.839844 6.300781 -6.550781 6.839844 -5.976562 C 7.378906 -5.398438 7.648438 -4.714844 7.648438 -3.960938 Z M 8.910156 0 L 8.910156 -7.921875 L 7.648438 -7.921875 L 7.648438 -6.550781 C 7.578125 -6.660156 7.488281 -6.75 7.414062 -6.839844 C 6.660156 -7.667969 5.742188 -8.101562 4.660156 -8.101562 C 3.5625 -8.101562 2.644531 -7.667969 1.890625 -6.839844 C 1.171875 -6.011719 0.808594 -5.058594 0.808594 -3.960938 C 0.808594 -2.84375 1.171875 -1.890625 1.890625 -1.078125 C 2.644531 -0.234375 3.5625 0.179688 4.660156 0.179688 C 5.742188 0.179688 6.660156 -0.234375 7.414062 -1.078125 C 7.488281 -1.152344 7.578125 -1.242188 7.648438 -1.351562 L 7.648438 0 Z M 8.910156 0 "/></g></g></g><g fill="#ffffff" fill-opacity="1"><g transform="translate(205.516656, 189.985476)"><g><path d="M 5.417969 -6.28125 L 5.417969 -7.921875 C 5.164062 -8.027344 4.894531 -8.082031 4.625 -8.082031 C 3.726562 -8.082031 3.078125 -7.578125 2.664062 -6.605469 L 2.609375 -6.28125 L 2.609375 -7.921875 L 1.351562 -7.921875 L 1.351562 0 L 2.609375 0 L 2.609375 -3.960938 C 2.609375 -4.609375 2.753906 -5.183594 3.058594 -5.707031 C 3.203125 -5.976562 3.402344 -6.210938 3.636719 -6.390625 C 3.871094 -6.570312 4.15625 -6.679688 4.480469 -6.679688 C 4.804688 -6.679688 5.113281 -6.535156 5.417969 -6.28125 Z M 5.417969 -6.28125 "/></g></g></g><g fill="#ffffff" fill-opacity="1"><g transform="translate(211.114636, 189.985476)"><g><path d="M 2.609375 0 L 2.609375 -3.796875 L 5.722656 0 L 7.398438 0 L 3.925781 -4.085938 L 7.183594 -7.9375 L 5.507812 -7.9375 L 2.609375 -4.355469 L 2.609375 -13.5 L 1.351562 -13.5 L 1.351562 0 Z M 2.609375 0 "/></g></g></g><g fill="#ffffff" fill-opacity="1"><g transform="translate(218.692615, 189.985476)"><g><path d="M 9.089844 -4.140625 C 9.089844 -5.21875 8.65625 -6.15625 7.828125 -6.964844 C 7.019531 -7.738281 6.046875 -8.136719 4.949219 -8.136719 C 3.796875 -8.136719 2.824219 -7.722656 2.015625 -6.910156 C 1.207031 -6.101562 0.808594 -5.128906 0.808594 -3.996094 C 0.808594 -2.84375 1.207031 -1.871094 2.015625 -1.078125 C 2.394531 -0.703125 2.824219 -0.414062 3.328125 -0.199219 C 3.835938 0.0195312 4.429688 0.125 5.128906 0.125 C 5.832031 0.125 6.515625 -0.0898438 7.199219 -0.523438 C 7.882812 -0.953125 8.386719 -1.566406 8.730469 -2.320312 L 7.289062 -2.320312 C 7.003906 -1.945312 6.660156 -1.65625 6.246094 -1.441406 C 5.832031 -1.222656 5.398438 -1.132812 4.949219 -1.132812 C 4.265625 -1.132812 3.652344 -1.351562 3.113281 -1.800781 C 2.574219 -2.230469 2.230469 -2.789062 2.125 -3.472656 L 9.089844 -3.472656 Z M 7.757812 -4.554688 L 2.140625 -4.554688 C 2.214844 -4.878906 2.339844 -5.183594 2.519531 -5.472656 C 3.097656 -6.40625 3.90625 -6.875 4.949219 -6.875 C 5.617188 -6.875 6.210938 -6.660156 6.730469 -6.226562 C 7.273438 -5.777344 7.597656 -5.21875 7.757812 -4.554688 Z M 7.757812 -4.554688 "/></g></g></g><g fill="#ffffff" fill-opacity="1"><g transform="translate(228.502582, 189.985476)"><g><path d="M 0.359375 -6.75 L 2.339844 -6.75 L 2.339844 0 L 3.601562 0 L 3.601562 -6.75 L 5.5625 -6.75 L 5.5625 -7.921875 L 3.601562 -7.921875 L 3.601562 -10.996094 L 2.339844 -10.996094 L 2.339844 -7.921875 L 0.359375 -7.921875 Z M 0.359375 -6.75 "/></g></g></g><g fill="#ffffff" fill-opacity="1"><g transform="translate(130.241993, 216.618751)"><g><path d="M 6.285156 -3.1875 C 6.285156 -2.460938 6.023438 -1.847656 5.519531 -1.34375 C 5.007812 -0.828125 4.390625 -0.578125 3.671875 -0.578125 C 2.957031 -0.578125 2.339844 -0.828125 1.835938 -1.34375 C 1.324219 -1.847656 1.070312 -2.460938 1.070312 -3.1875 C 1.070312 -3.898438 1.324219 -4.511719 1.835938 -5.023438 C 2.339844 -5.527344 2.957031 -5.789062 3.671875 -5.789062 C 4.390625 -5.789062 5.007812 -5.527344 5.519531 -5.023438 C 6.023438 -4.511719 6.285156 -3.898438 6.285156 -3.1875 Z M 6.9375 -3.1875 C 6.9375 -3.636719 6.84375 -4.054688 6.675781 -4.457031 C 6.507812 -4.847656 6.273438 -5.191406 5.976562 -5.492188 C 5.675781 -5.78125 5.332031 -6.011719 4.941406 -6.179688 C 4.539062 -6.347656 4.121094 -6.441406 3.671875 -6.441406 C 3.226562 -6.441406 2.796875 -6.347656 2.40625 -6.179688 C 2.011719 -6.011719 1.667969 -5.78125 1.371094 -5.492188 C 1.070312 -5.191406 0.839844 -4.847656 0.671875 -4.457031 C 0.503906 -4.054688 0.417969 -3.636719 0.417969 -3.1875 C 0.417969 -2.742188 0.503906 -2.3125 0.671875 -1.921875 C 0.839844 -1.519531 1.070312 -1.175781 1.371094 -0.875 C 1.667969 -0.578125 2.011719 -0.34375 2.40625 -0.175781 C 2.796875 -0.0078125 3.226562 0.0742188 3.671875 0.0742188 C 4.121094 0.0742188 4.539062 -0.0078125 4.941406 -0.175781 C 5.332031 -0.34375 5.675781 -0.578125 5.976562 -0.875 C 6.273438 -1.175781 6.507812 -1.519531 6.675781 -1.921875 C 6.84375 -2.3125 6.9375 -2.742188 6.9375 -3.1875 Z M 6.9375 -3.1875 "/></g></g></g><g fill="#ffffff" fill-opacity="1"><g transform="translate(142.256499, 216.618751)"><g><path d="M 1.351562 -4.671875 L 4.914062 0.390625 L 4.914062 -6.339844 L 4.261719 -6.339844 L 4.261719 -1.679688 L 0.699219 -6.738281 L 0.699219 0 L 1.351562 0 Z M 1.351562 -4.671875 "/></g></g></g><g fill="#ffffff" fill-opacity="1"><g transform="translate(152.528837, 216.618751)"><g><path d="M 1.351562 -0.652344 L 1.351562 -6.339844 L 0.699219 -6.339844 L 0.699219 0 L 3.617188 0 L 3.617188 -0.652344 Z M 1.351562 -0.652344 "/></g></g></g><g fill="#ffffff" fill-opacity="1"><g transform="translate(160.993799, 216.618751)"><g><path d="M 1.351562 0 L 1.351562 -6.339844 L 0.699219 -6.339844 L 0.699219 0 Z M 1.351562 0 "/></g></g></g><g fill="#ffffff" fill-opacity="1"><g transform="translate(167.707275, 216.618751)"><g><path d="M 1.351562 -4.671875 L 4.914062 0.390625 L 4.914062 -6.339844 L 4.261719 -6.339844 L 4.261719 -1.679688 L 0.699219 -6.738281 L 0.699219 0 L 1.351562 0 Z M 1.351562 -4.671875 "/></g></g></g><g fill="#ffffff" fill-opacity="1"><g transform="translate(177.979611, 216.618751)"><g><path d="M 4.464844 0 L 4.464844 -0.605469 L 1.351562 -0.605469 L 1.351562 -2.863281 L 4.371094 -2.863281 L 4.371094 -3.476562 L 1.351562 -3.476562 L 1.351562 -5.734375 L 4.464844 -5.734375 L 4.464844 -6.339844 L 0.699219 -6.339844 L 0.699219 0 Z M 4.464844 0 "/></g></g></g><g fill="#ffffff" fill-opacity="1"><g transform="translate(187.804758, 216.618751)"><g/></g></g><g fill="#ffffff" fill-opacity="1"><g transform="translate(194.984054, 216.618751)"><g><path d="M 2.453125 -2.984375 C 3.273438 -2.789062 3.832031 -2.574219 4.128906 -2.332031 C 4.335938 -2.164062 4.4375 -1.949219 4.4375 -1.6875 C 4.4375 -1.425781 4.382812 -1.210938 4.269531 -1.0625 C 3.988281 -0.671875 3.488281 -0.476562 2.777344 -0.476562 C 1.789062 -0.476562 1.230469 -0.8125 1.109375 -1.480469 L 0.34375 -1.480469 C 0.570312 -0.410156 1.378906 0.121094 2.777344 0.121094 C 3.402344 0.121094 3.925781 -0.0078125 4.34375 -0.289062 C 4.847656 -0.617188 5.109375 -1.101562 5.109375 -1.734375 C 5.109375 -2.257812 4.902344 -2.65625 4.492188 -2.9375 C 4.203125 -3.140625 3.738281 -3.328125 3.09375 -3.496094 C 2.441406 -3.664062 2.023438 -3.804688 1.828125 -3.90625 C 1.398438 -4.121094 1.183594 -4.417969 1.191406 -4.808594 C 1.191406 -5.015625 1.230469 -5.191406 1.324219 -5.324219 C 1.566406 -5.6875 1.996094 -5.875 2.609375 -5.875 C 3.476562 -5.875 3.972656 -5.59375 4.101562 -5.054688 L 4.808594 -5.054688 C 4.578125 -5.964844 3.839844 -6.433594 2.609375 -6.433594 C 2.050781 -6.433594 1.558594 -6.285156 1.148438 -5.984375 C 0.726562 -5.6875 0.511719 -5.25 0.511719 -4.652344 C 0.511719 -3.839844 1.164062 -3.28125 2.453125 -2.984375 Z M 2.453125 -2.984375 "/></g></g></g><g fill="#ffffff" fill-opacity="1"><g transform="translate(204.995534, 216.618751)"><g><path d="M 1.351562 0 L 1.351562 -2.835938 L 4.230469 -2.835938 L 4.230469 0 L 4.886719 0 L 4.886719 -6.339844 L 4.230469 -6.339844 L 4.230469 -3.488281 L 1.351562 -3.488281 L 1.351562 -6.339844 L 0.699219 -6.339844 L 0.699219 0 Z M 1.351562 0 "/></g></g></g><g fill="#ffffff" fill-opacity="1"><g transform="translate(215.239924, 216.618751)"><g><path d="M 6.285156 -3.1875 C 6.285156 -2.460938 6.023438 -1.847656 5.519531 -1.34375 C 5.007812 -0.828125 4.390625 -0.578125 3.671875 -0.578125 C 2.957031 -0.578125 2.339844 -0.828125 1.835938 -1.34375 C 1.324219 -1.847656 1.070312 -2.460938 1.070312 -3.1875 C 1.070312 -3.898438 1.324219 -4.511719 1.835938 -5.023438 C 2.339844 -5.527344 2.957031 -5.789062 3.671875 -5.789062 C 4.390625 -5.789062 5.007812 -5.527344 5.519531 -5.023438 C 6.023438 -4.511719 6.285156 -3.898438 6.285156 -3.1875 Z M 6.9375 -3.1875 C 6.9375 -3.636719 6.84375 -4.054688 6.675781 -4.457031 C 6.507812 -4.847656 6.273438 -5.191406 5.976562 -5.492188 C 5.675781 -5.78125 5.332031 -6.011719 4.941406 -6.179688 C 4.539062 -6.347656 4.121094 -6.441406 3.671875 -6.441406 C 3.226562 -6.441406 2.796875 -6.347656 2.40625 -6.179688 C 2.011719 -6.011719 1.667969 -5.78125 1.371094 -5.492188 C 1.070312 -5.191406 0.839844 -4.847656 0.671875 -4.457031 C 0.503906 -4.054688 0.417969 -3.636719 0.417969 -3.1875 C 0.417969 -2.742188 0.503906 -2.3125 0.671875 -1.921875 C 0.839844 -1.519531 1.070312 -1.175781 1.371094 -0.875 C 1.667969 -0.578125 2.011719 -0.34375 2.40625 -0.175781 C 2.796875 -0.0078125 3.226562 0.0742188 3.671875 0.0742188 C 4.121094 0.0742188 4.539062 -0.0078125 4.941406 -0.175781 C 5.332031 -0.34375 5.675781 -0.578125 5.976562 -0.875 C 6.273438 -1.175781 6.507812 -1.519531 6.675781 -1.921875 C 6.84375 -2.3125 6.9375 -2.742188 6.9375 -3.1875 Z M 6.9375 -3.1875 "/></g></g></g><g fill="#ffffff" fill-opacity="1"><g transform="translate(227.254434, 216.618751)"><g><path d="M 1.351562 -3.140625 L 1.351562 -5.714844 L 2.824219 -5.714844 C 3.207031 -5.714844 3.515625 -5.59375 3.746094 -5.359375 C 3.972656 -5.117188 4.09375 -4.820312 4.09375 -4.445312 C 4.09375 -4.066406 3.972656 -3.757812 3.730469 -3.503906 C 3.488281 -3.261719 3.1875 -3.140625 2.824219 -3.140625 Z M 4.746094 -4.429688 C 4.746094 -4.988281 4.539062 -5.445312 4.148438 -5.808594 C 3.757812 -6.164062 3.289062 -6.339844 2.730469 -6.339844 L 0.699219 -6.339844 L 0.699219 0 L 1.351562 0 L 1.351562 -2.507812 L 2.730469 -2.507812 C 3.289062 -2.507812 3.765625 -2.683594 4.148438 -3.039062 C 4.539062 -3.410156 4.746094 -3.867188 4.746094 -4.429688 Z M 4.746094 -4.429688 "/></g></g></g></svg>