<svg xmlns="http://www.w3.org/2000/svg" xmlns:xlink="http://www.w3.org/1999/xlink" width="500" zoomAndPan="magnify" viewBox="0 0 375 374.999991" height="500" preserveAspectRatio="xMidYMid meet" version="1.0"><defs><g/><clipPath id="edf9c4635f"><path d="M 49 128.21875 L 80 128.21875 L 80 151 L 49 151 Z M 49 128.21875 " clip-rule="nonzero"/></clipPath><clipPath id="9e482940a1"><path d="M 37.5 147 L 91.5 147 L 91.5 204.71875 L 37.5 204.71875 Z M 37.5 147 " clip-rule="nonzero"/></clipPath></defs><g clip-path="url(#edf9c4635f)"><path fill="#000000" d="M 79.195312 150.058594 L 74.691406 150.058594 L 74.691406 142.992188 C 74.691406 137.339844 70.097656 132.75 64.441406 132.75 C 58.78125 132.75 54.1875 137.339844 54.1875 142.992188 L 54.1875 150.058594 L 49.6875 150.058594 L 49.6875 142.992188 C 49.6875 134.863281 56.304688 128.25 64.441406 128.25 C 72.574219 128.25 79.195312 134.863281 79.195312 142.992188 Z M 79.195312 150.058594 " fill-opacity="1" fill-rule="nonzero"/></g><g clip-path="url(#9e482940a1)"><path fill="#000000" d="M 43.832031 152.308594 L 85.078125 152.308594 L 86.398438 184.8125 L 66.691406 184.8125 L 66.691406 168.523438 L 72.980469 174.808594 L 76.164062 171.628906 L 64.441406 159.914062 L 52.71875 171.628906 L 55.898438 174.808594 L 62.1875 168.523438 L 62.1875 189.3125 L 91.097656 189.3125 L 89.402344 147.808594 L 39.449219 147.808594 L 37.8125 204.808594 L 65.609375 204.808594 L 65.609375 200.308594 L 42.449219 200.308594 Z M 43.832031 152.308594 " fill-opacity="1" fill-rule="nonzero"/></g><g fill="#000000" fill-opacity="1"><g transform="translate(96.389441, 198.38218)"><g><path d="M 2.359375 0 L 2.359375 -24.359375 L 11.3125 -24.359375 C 13.257812 -24.359375 14.863281 -24.023438 16.125 -23.359375 C 17.394531 -22.703125 18.34375 -21.8125 18.96875 -20.6875 C 19.59375 -19.5625 19.90625 -18.316406 19.90625 -16.953125 C 19.90625 -15.460938 19.515625 -14.101562 18.734375 -12.875 C 17.960938 -11.644531 16.753906 -10.753906 15.109375 -10.203125 L 20.140625 0 L 15.03125 0 L 10.515625 -9.609375 L 6.8125 -9.609375 L 6.8125 0 Z M 6.8125 -12.875 L 11.03125 -12.875 C 12.507812 -12.875 13.597656 -13.234375 14.296875 -13.953125 C 14.992188 -14.671875 15.34375 -15.625 15.34375 -16.8125 C 15.34375 -17.96875 15 -18.894531 14.3125 -19.59375 C 13.632812 -20.289062 12.53125 -20.640625 11 -20.640625 L 6.8125 -20.640625 Z M 6.8125 -12.875 "/></g></g></g><g fill="#000000" fill-opacity="1"><g transform="translate(118.058175, 198.38218)"><g><path d="M 10.546875 0.421875 C 8.867188 0.421875 7.363281 0.0390625 6.03125 -0.71875 C 4.695312 -1.488281 3.640625 -2.550781 2.859375 -3.90625 C 2.085938 -5.269531 1.703125 -6.84375 1.703125 -8.625 C 1.703125 -10.414062 2.097656 -11.988281 2.890625 -13.34375 C 3.679688 -14.695312 4.742188 -15.753906 6.078125 -16.515625 C 7.410156 -17.285156 8.910156 -17.671875 10.578125 -17.671875 C 12.222656 -17.671875 13.710938 -17.285156 15.046875 -16.515625 C 16.378906 -15.753906 17.429688 -14.695312 18.203125 -13.34375 C 18.984375 -11.988281 19.375 -10.414062 19.375 -8.625 C 19.375 -6.84375 18.984375 -5.269531 18.203125 -3.90625 C 17.429688 -2.550781 16.375 -1.488281 15.03125 -0.71875 C 13.6875 0.0390625 12.191406 0.421875 10.546875 0.421875 Z M 10.546875 -3.4375 C 11.703125 -3.4375 12.707031 -3.867188 13.5625 -4.734375 C 14.425781 -5.609375 14.859375 -6.90625 14.859375 -8.625 C 14.859375 -10.34375 14.425781 -11.632812 13.5625 -12.5 C 12.707031 -13.375 11.710938 -13.8125 10.578125 -13.8125 C 9.390625 -13.8125 8.375 -13.375 7.53125 -12.5 C 6.6875 -11.632812 6.265625 -10.34375 6.265625 -8.625 C 6.265625 -6.90625 6.6875 -5.609375 7.53125 -4.734375 C 8.375 -3.867188 9.378906 -3.4375 10.546875 -3.4375 Z M 10.546875 -3.4375 "/></g></g></g><g fill="#000000" fill-opacity="1"><g transform="translate(139.135627, 198.38218)"><g><path d="M 2.265625 0 L 2.265625 -25.046875 L 6.71875 -25.046875 L 6.71875 0 Z M 2.265625 0 "/></g></g></g><g fill="#000000" fill-opacity="1"><g transform="translate(148.143981, 198.38218)"><g><path d="M 2.265625 0 L 2.265625 -25.046875 L 6.71875 -25.046875 L 6.71875 0 Z M 2.265625 0 "/></g></g></g><g fill="#000000" fill-opacity="1"><g transform="translate(157.152334, 198.38218)"><g><path d="M 4.65625 -19.9375 C 3.84375 -19.9375 3.175781 -20.179688 2.65625 -20.671875 C 2.132812 -21.160156 1.875 -21.773438 1.875 -22.515625 C 1.875 -23.253906 2.132812 -23.859375 2.65625 -24.328125 C 3.175781 -24.804688 3.84375 -25.046875 4.65625 -25.046875 C 5.46875 -25.046875 6.132812 -24.804688 6.65625 -24.328125 C 7.1875 -23.859375 7.453125 -23.253906 7.453125 -22.515625 C 7.453125 -21.773438 7.1875 -21.160156 6.65625 -20.671875 C 6.132812 -20.179688 5.46875 -19.9375 4.65625 -19.9375 Z M 2.4375 0 L 2.4375 -17.265625 L 6.890625 -17.265625 L 6.890625 0 Z M 2.4375 0 "/></g></g></g><g fill="#000000" fill-opacity="1"><g transform="translate(166.438939, 198.38218)"><g><path d="M 2.265625 0 L 2.265625 -17.265625 L 6.1875 -17.265625 L 6.546875 -14.34375 C 7.078125 -15.363281 7.847656 -16.171875 8.859375 -16.765625 C 9.867188 -17.367188 11.054688 -17.671875 12.421875 -17.671875 C 14.554688 -17.671875 16.210938 -17 17.390625 -15.65625 C 18.578125 -14.3125 19.171875 -12.34375 19.171875 -9.75 L 19.171875 0 L 14.71875 0 L 14.71875 -9.328125 C 14.71875 -10.804688 14.414062 -11.941406 13.8125 -12.734375 C 13.207031 -13.523438 12.269531 -13.921875 11 -13.921875 C 9.738281 -13.921875 8.707031 -13.476562 7.90625 -12.59375 C 7.113281 -11.71875 6.71875 -10.488281 6.71875 -8.90625 L 6.71875 0 Z M 2.265625 0 "/></g></g></g><g fill="#000000" fill-opacity="1"><g transform="translate(187.585961, 198.38218)"><g><path d="M 9.5625 -5.15625 C 8.726562 -5.15625 7.953125 -5.242188 7.234375 -5.421875 L 5.953125 -4.140625 C 6.347656 -3.929688 6.878906 -3.753906 7.546875 -3.609375 C 8.222656 -3.472656 9.316406 -3.335938 10.828125 -3.203125 C 13.117188 -2.992188 14.785156 -2.445312 15.828125 -1.5625 C 16.878906 -0.6875 17.40625 0.53125 17.40625 2.09375 C 17.40625 3.113281 17.125 4.082031 16.5625 5 C 16.007812 5.914062 15.148438 6.65625 13.984375 7.21875 C 12.828125 7.789062 11.34375 8.078125 9.53125 8.078125 C 7.070312 8.078125 5.085938 7.617188 3.578125 6.703125 C 2.078125 5.785156 1.328125 4.410156 1.328125 2.578125 C 1.328125 1.023438 2.078125 -0.320312 3.578125 -1.46875 C 3.117188 -1.675781 2.71875 -1.894531 2.375 -2.125 C 2.039062 -2.351562 1.75 -2.597656 1.5 -2.859375 L 1.5 -3.65625 L 4.53125 -6.859375 C 3.175781 -8.035156 2.5 -9.550781 2.5 -11.40625 C 2.5 -12.570312 2.78125 -13.628906 3.34375 -14.578125 C 3.914062 -15.523438 4.722656 -16.273438 5.765625 -16.828125 C 6.816406 -17.390625 8.082031 -17.671875 9.5625 -17.671875 C 10.539062 -17.671875 11.445312 -17.535156 12.28125 -17.265625 L 18.828125 -17.265625 L 18.828125 -14.546875 L 15.875 -14.34375 C 16.332031 -13.457031 16.5625 -12.476562 16.5625 -11.40625 C 16.5625 -10.25 16.28125 -9.191406 15.71875 -8.234375 C 15.164062 -7.285156 14.363281 -6.535156 13.3125 -5.984375 C 12.257812 -5.429688 11.007812 -5.15625 9.5625 -5.15625 Z M 9.5625 -8.5625 C 10.46875 -8.5625 11.21875 -8.800781 11.8125 -9.28125 C 12.40625 -9.769531 12.703125 -10.46875 12.703125 -11.375 C 12.703125 -12.28125 12.40625 -12.976562 11.8125 -13.46875 C 11.21875 -13.957031 10.46875 -14.203125 9.5625 -14.203125 C 8.613281 -14.203125 7.847656 -13.957031 7.265625 -13.46875 C 6.691406 -12.976562 6.40625 -12.28125 6.40625 -11.375 C 6.40625 -10.46875 6.691406 -9.769531 7.265625 -9.28125 C 7.847656 -8.800781 8.613281 -8.5625 9.5625 -8.5625 Z M 5.390625 2.125 C 5.390625 2.976562 5.789062 3.617188 6.59375 4.046875 C 7.394531 4.484375 8.375 4.703125 9.53125 4.703125 C 10.644531 4.703125 11.550781 4.472656 12.25 4.015625 C 12.945312 3.566406 13.296875 2.957031 13.296875 2.1875 C 13.296875 1.5625 13.066406 1.039062 12.609375 0.625 C 12.160156 0.207031 11.265625 -0.046875 9.921875 -0.140625 C 8.960938 -0.210938 8.078125 -0.316406 7.265625 -0.453125 C 6.597656 -0.078125 6.117188 0.328125 5.828125 0.765625 C 5.535156 1.203125 5.390625 1.65625 5.390625 2.125 Z M 5.390625 2.125 "/></g></g></g><g fill="#000000" fill-opacity="1"><g transform="translate(207.376502, 198.38218)"><g/></g></g><g fill="#000000" fill-opacity="1"><g transform="translate(215.654448, 198.38218)"><g><path d="M 2.359375 0 L 2.359375 -24.359375 L 7.65625 -24.359375 L 15.421875 -8.90625 L 23.078125 -24.359375 L 28.359375 -24.359375 L 28.359375 0 L 23.90625 0 L 23.90625 -16.8125 L 17.125 -3.484375 L 13.609375 -3.484375 L 6.8125 -16.8125 L 6.8125 0 Z M 2.359375 0 "/></g></g></g><g fill="#000000" fill-opacity="1"><g transform="translate(246.366314, 198.38218)"><g><path d="M 8.21875 0.421875 C 6.726562 0.421875 5.503906 0.179688 4.546875 -0.296875 C 3.597656 -0.773438 2.890625 -1.40625 2.421875 -2.1875 C 1.960938 -2.976562 1.734375 -3.847656 1.734375 -4.796875 C 1.734375 -6.398438 2.359375 -7.703125 3.609375 -8.703125 C 4.867188 -9.703125 6.75 -10.203125 9.25 -10.203125 L 13.640625 -10.203125 L 13.640625 -10.609375 C 13.640625 -11.796875 13.300781 -12.664062 12.625 -13.21875 C 11.957031 -13.78125 11.125 -14.0625 10.125 -14.0625 C 9.21875 -14.0625 8.425781 -13.84375 7.75 -13.40625 C 7.082031 -12.976562 6.664062 -12.347656 6.5 -11.515625 L 2.15625 -11.515625 C 2.269531 -12.765625 2.691406 -13.851562 3.421875 -14.78125 C 4.160156 -15.71875 5.109375 -16.429688 6.265625 -16.921875 C 7.421875 -17.421875 8.71875 -17.671875 10.15625 -17.671875 C 12.613281 -17.671875 14.550781 -17.054688 15.96875 -15.828125 C 17.382812 -14.597656 18.09375 -12.859375 18.09375 -10.609375 L 18.09375 0 L 14.296875 0 L 13.890625 -2.78125 C 13.378906 -1.851562 12.664062 -1.085938 11.75 -0.484375 C 10.832031 0.117188 9.65625 0.421875 8.21875 0.421875 Z M 9.21875 -3.0625 C 10.5 -3.0625 11.488281 -3.476562 12.1875 -4.3125 C 12.894531 -5.144531 13.34375 -6.175781 13.53125 -7.40625 L 9.75 -7.40625 C 8.5625 -7.40625 7.710938 -7.191406 7.203125 -6.765625 C 6.691406 -6.335938 6.4375 -5.8125 6.4375 -5.1875 C 6.4375 -4.507812 6.691406 -3.984375 7.203125 -3.609375 C 7.710938 -3.242188 8.382812 -3.0625 9.21875 -3.0625 Z M 9.21875 -3.0625 "/></g></g></g><g fill="#000000" fill-opacity="1"><g transform="translate(266.435107, 198.38218)"><g><path d="M 2.265625 0 L 2.265625 -17.265625 L 6.234375 -17.265625 L 6.640625 -14.015625 C 7.265625 -15.128906 8.117188 -16.015625 9.203125 -16.671875 C 10.285156 -17.335938 11.554688 -17.671875 13.015625 -17.671875 L 13.015625 -12.984375 L 11.765625 -12.984375 C 10.785156 -12.984375 9.910156 -12.832031 9.140625 -12.53125 C 8.378906 -12.226562 7.785156 -11.703125 7.359375 -10.953125 C 6.929688 -10.210938 6.71875 -9.179688 6.71875 -7.859375 L 6.71875 0 Z M 2.265625 0 "/></g></g></g><g fill="#000000" fill-opacity="1"><g transform="translate(280.208494, 198.38218)"><g><path d="M 2.265625 0 L 2.265625 -25.046875 L 6.71875 -25.046875 L 6.71875 -10.265625 L 12.84375 -17.265625 L 18.125 -17.265625 L 11.0625 -9.390625 L 19.28125 0 L 13.703125 0 L 6.71875 -8.671875 L 6.71875 0 Z M 2.265625 0 "/></g></g></g><g fill="#000000" fill-opacity="1"><g transform="translate(299.964257, 198.38218)"><g><path d="M 10.640625 0.421875 C 8.898438 0.421875 7.359375 0.0507812 6.015625 -0.6875 C 4.671875 -1.4375 3.613281 -2.484375 2.84375 -3.828125 C 2.082031 -5.171875 1.703125 -6.722656 1.703125 -8.484375 C 1.703125 -10.273438 2.078125 -11.863281 2.828125 -13.25 C 3.585938 -14.644531 4.632812 -15.726562 5.96875 -16.5 C 7.300781 -17.28125 8.875 -17.671875 10.6875 -17.671875 C 12.375 -17.671875 13.867188 -17.300781 15.171875 -16.5625 C 16.472656 -15.820312 17.488281 -14.804688 18.21875 -13.515625 C 18.945312 -12.234375 19.3125 -10.800781 19.3125 -9.21875 C 19.3125 -8.96875 19.304688 -8.703125 19.296875 -8.421875 C 19.285156 -8.140625 19.269531 -7.847656 19.25 -7.546875 L 6.125 -7.546875 C 6.21875 -6.203125 6.6875 -5.144531 7.53125 -4.375 C 8.375 -3.613281 9.398438 -3.234375 10.609375 -3.234375 C 11.515625 -3.234375 12.273438 -3.4375 12.890625 -3.84375 C 13.503906 -4.25 13.960938 -4.773438 14.265625 -5.421875 L 18.796875 -5.421875 C 18.460938 -4.335938 17.921875 -3.347656 17.171875 -2.453125 C 16.421875 -1.554688 15.492188 -0.851562 14.390625 -0.34375 C 13.285156 0.164062 12.035156 0.421875 10.640625 0.421875 Z M 10.6875 -14.0625 C 9.59375 -14.0625 8.628906 -13.753906 7.796875 -13.140625 C 6.960938 -12.523438 6.425781 -11.585938 6.1875 -10.328125 L 14.78125 -10.328125 C 14.71875 -11.472656 14.300781 -12.378906 13.53125 -13.046875 C 12.769531 -13.722656 11.820312 -14.0625 10.6875 -14.0625 Z M 10.6875 -14.0625 "/></g></g></g><g fill="#000000" fill-opacity="1"><g transform="translate(320.763457, 198.38218)"><g><path d="M 9.953125 0 C 8.140625 0 6.6875 -0.4375 5.59375 -1.3125 C 4.507812 -2.195312 3.96875 -3.765625 3.96875 -6.015625 L 3.96875 -13.53125 L 1.015625 -13.53125 L 1.015625 -17.265625 L 3.96875 -17.265625 L 4.484375 -21.890625 L 8.421875 -21.890625 L 8.421875 -17.265625 L 13.078125 -17.265625 L 13.078125 -13.53125 L 8.421875 -13.53125 L 8.421875 -5.984375 C 8.421875 -5.148438 8.597656 -4.578125 8.953125 -4.265625 C 9.316406 -3.953125 9.941406 -3.796875 10.828125 -3.796875 L 12.984375 -3.796875 L 12.984375 0 Z M 9.953125 0 "/></g></g></g></svg>